<svg xmlns="http://www.w3.org/2000/svg" viewBox="0 0 64 64">
  <defs>
    <linearGradient id="g" x1="0" y1="0" x2="1" y2="1">
      <stop offset="0" stop-color="#E7B7B2"></stop>
      <stop offset="1" stop-color="#D49A94"></stop>
    </linearGradient>
  </defs>

  <circle cx="32" cy="32" r="28" fill="#FFF1F2"></circle>
  <g fill="url(#g)">
    <!-- pétalas -->
    <path d="M32 14c4 0 7 5 7 9s-3 7-7 7-7-3-7-7 3-9 7-9z"></path>
    <path d="M50 32c0 4-5 7-9 7s-7-3-7-7 3-7 7-7 9 3 9 7z"></path>
    <path d="M32 50c-4 0-7-5-7-9s3-7 7-7 7 3 7 7-3 9-7 9z"></path>
    <path d="M14 32c0-4 5-7 9-7s7 3 7 7-3 7-7 7-9-3-9-7z"></path>
    <!-- miolo -->
    <circle cx="32" cy="32" r="5" fill="#C97F78"></circle>
  </g>
</svg>
