<svg width="300" height="60" viewBox="0 0 300 60" fill="none" xmlns="http://www.w3.org/2000/svg">
  <g transform="translate(10, 15)">
    <path d="M25 0C25 0 27 10 30 13C33 16 43 18 43 18C43 18 33 20 30 23C27 26 25 36 25 36C25 36 23 26 20 23C17 20 7 18 7 18C7 18 17 16 20 13C23 10 25 0 25 0Z" fill="#E91E63"></path>
    <path d="M5 18C-2 18 -8 22 -10 26" stroke="#E91E63" stroke-width="2" stroke-linecap="round"></path>
    <path d="M45 18C52 18 58 22 60 26" stroke="#E91E63" stroke-width="2" stroke-linecap="round"></path>
  </g>

  <text x="85" y="37" font-family="Arial, sans-serif" font-size="30" font-weight="700" letter-spacing="0.5" fill="#E91E63">alubeauty</text>

  <text x="86" y="52" font-family="Arial, sans-serif" font-size="9" font-weight="400" letter-spacing="3" fill="#FFFFFF">ESTÉTICA &amp; COSMÉTICA</text>
</svg>
